<?xml version="1.0" encoding="UTF-8"?>
<!DOCTYPE svg PUBLIC "-//W3C//DTD SVG 1.1//EN" "http://www.w3.org/Graphics/SVG/1.1/DTD/svg11.dtd">
<!-- Creator: CorelDRAW 2020 (64-Bit Versión de evaluación) -->
<svg xmlns="http://www.w3.org/2000/svg" xml:space="preserve" width="1000px" height="1000px" version="1.1" style="shape-rendering:geometricPrecision; text-rendering:geometricPrecision; image-rendering:optimizeQuality; fill-rule:evenodd; clip-rule:evenodd"
viewBox="0 0 1000 1000"
 xmlns:xlink="http://www.w3.org/1999/xlink"
 xmlns:xodm="http://www.corel.com/coreldraw/odm/2003">
 <defs>
  <style type="text/css">
   <![CDATA[
    .fil0 {fill:white}
   ]]>
  </style>
 </defs>
 <g id="Capa_x0020_1">
  <metadata id="CorelCorpID_0Corel-Layer"/>
  <path class="fil0" d="M688.739 41.382c252.315,104.513 372.133,393.78 267.62,646.096 -104.513,252.316 -393.779,372.135 -646.095,267.623 -252.317,-104.514 -372.136,-393.781 -267.623,-646.097 104.513,-252.316 393.78,-372.135 646.098,-267.622zm-412.529 162.587l-0.35 -0.145 -0.286 -0.118 0.002 -0.005c-14.588,-6.333 -21.459,-23.218 -15.351,-37.966 6.111,-14.753 22.908,-21.836 37.703,-15.996l0.003 -0.006 0.461 0.191 508.541 210.644 -22.357 53.973 -0.004 -0.002 -188.265 454.514 -0.146 0.351 -0.073 0.175 -0.005 -0.002c-6.295,14.662 -23.227,21.586 -38.013,15.461 -14.79,-6.125 -21.87,-22.993 -15.95,-37.813l-0.005 -0.002 0.145 -0.351 188.339 -454.688 -454.389 -188.215zm128.68 586.875l-0.145 0.351c-6.235,14.782 -23.247,21.783 -38.09,15.634 -14.908,-6.174 -21.985,-23.261 -15.812,-38.166l0.118 -0.278 -0.002 -0.001 109.336 -263.961 -263.497 -109.144 -0.35 -0.145 -0.094 -0.039 0 -0.001c-14.719,-6.265 -21.677,-23.238 -15.542,-38.05 6.138,-14.818 23.057,-21.897 37.897,-15.918l0.002 -0.005 0.269 0.112 317.642 131.572 -0.01 0.023 0.004 0.001 -131.684 317.912 0 -0.001 -0.042 0.104z"/>
 </g>
</svg>
